# xmcd
#
# Track frame offsets:
#	150
#	17081
#	30761
#	45000
#	62401
#	77691
#	93965
#	108852
#	121718
#	134016
#	154689
#	168082
#	186838
#	200984
#	217367
#	232747
#	245563
#	262514
#
# Disc length: 3714 seconds
#
# Revision: 1
# Processed by: cddbd v1.5.2PL0 Copyright (c) Steve Scherf et al.
# Submitted via: EasyCDDAExtractor 2010.6.0.0
#
DISCID=d90e8012
DTITLE=LEONARDO - ESSE ALGUÉM SOU EU
DYEAR=2009
DGENRE=Country
TTITLE0=MAIS UMA NOITE SEM VOCÊ
TTITLE1=QUEM É?
TTITLE2=O QUANTO NOSSO AMOR VALEU
TTITLE3=MENTIROSA
TTITLE4=ESSE ALGUÉM SOU EU
TTITLE5=DOR DE AMOR NÃO TEM JEITO
TTITLE6=VOCÊ AINDA VAI VOLTAR
TTITLE7=FLOR DO MEU SERTÃO
TTITLE8=LÁGRIMAS DE UM HOMEM
TTITLE9=PAIXÃ DE UM HOMEM/ NA HORA DO ADEUS/EU NÃO SOU CACHORRO NÃO
TTITLE10=O CARA ERRADO
TTITLE11=CORAÇÃO BANDIDO
TTITLE12=DE LATINHA NA MÃO
TTITLE13=FANTASIAS
TTITLE14=A FILA ANDA
TTITLE15=PRA NUNCA DIZER ADEUS
TTITLE16=VOLTE,AMOR
TTITLE17=ÁGUA DE COCO
EXTD=
EXTT0=
EXTT1=
EXTT2=
EXTT3=
EXTT4=
EXTT5=
EXTT6=
EXTT7=
EXTT8=
EXTT9=
EXTT10=
EXTT11=
EXTT12=
EXTT13=
EXTT14=
EXTT15=
EXTT16=
EXTT17=
PLAYORDER=
